# xmcd CD database file generated by Grip 3.2.0
# 
# Track frame offsets:
#       150
#       8292
#       24827
#       47827
#       57917
#       73770
#       84360
#       95162
#       121102
#       180460
#       210522
#       219547
# 
# Disc length: 3751 seconds
# 
# Revision: 4
# Processed by: cddbd v1.5.2PL0 Copyright (c) Steve Scherf et al.
# Submitted via: Grip 3.2.0
# 
DISCID=940ea50c
DTITLE=Various Artist - Geschichte der Pop Musik CD 41
DYEAR=1998
DGENRE=Country
TTITLE0=Einleitung
TTITLE1=Die Geschichte Der Musik ...
TTITLE2=Jefferson Airplane - Won't You Try - Saturday Afternoon
TTITLE3=Won't You Try Und Saturday Afternoon ...
TTITLE4=Jefferson Airplane - Let's Get Together
TTITLE5=Hier Wird Die Orientierung ...
TTITLE6=Jefferson Airplane - Me And My Chauffeur Blues
TTITLE7=Me And My Chauffeur Blues, Ein Älteres Blues-Stück ...
TTITLE8=Butterfield Blues Band - East West
TTITLE9=Verglichen Mit Den Handwerklichen Fähigkeiten ...
TTITLE10=Lovin' Spoonful - Do You Believe In Magic
TTITLE11=Wenn Du An Magie Glaubst ...
EXTD=YEAR: 1998
EXTT0=
EXTT1=
EXTT2=
EXTT3=
EXTT4=
EXTT5=
EXTT6=
EXTT7=
EXTT8=
EXTT9=
EXTT10=
EXTT11=
PLAYORDER=
